<?xml version="1.0" standalone="no"?>
<!DOCTYPE svg PUBLIC "-//W3C//DTD SVG 20010904//EN"
 "http://www.w3.org/TR/2001/REC-SVG-20010904/DTD/svg10.dtd">
<svg version="1.0" xmlns="http://www.w3.org/2000/svg"
 width="100.000000pt" height="100.000000pt" viewBox="0 0 100.000000 100.000000"
 preserveAspectRatio="xMidYMid meet">
<metadata>
Created by potrace 1.14, written by Peter Selinger 2001-2017
</metadata>
<g transform="translate(0.000000,100.000000) scale(0.100000,-0.100000)"
fill="#000000" stroke="none">
<path d="M687 974 c-1 -1 -141 -4 -312 -7 -171 -4 -311 -6 -312 -7 -2 0 -3 -7
-3 -15 0 -8 -4 -15 -9 -15 -4 0 -6 -12 -3 -26 4 -20 0 -26 -18 -31 l-24 -6 23
-8 c17 -7 20 -13 13 -26 -11 -23 -6 -71 9 -89 9 -12 9 -13 -2 -9 -11 4 -13 -9
-11 -67 4 -87 2 -171 -3 -176 -2 -2 0 -15 6 -29 12 -32 19 -133 10 -157 -4
-10 -4 -44 1 -75 4 -31 8 -76 9 -100 2 -39 6 -44 33 -54 33 -12 49 -12 161 -3
158 13 491 13 590 0 63 -8 104 -9 109 -3 6 5 6 9 2 9 -5 0 -3 6 3 14 14 17 23
56 13 56 -4 0 -7 97 -7 215 0 118 -2 215 -5 215 -7 0 -4 205 3 224 4 9 3 16
-1 16 -4 0 -9 26 -10 57 -3 96 4 91 -138 95 -69 2 -126 2 -127 2z m-191 -66
c5 -7 2 -8 -7 -3 -12 7 -12 6 -1 -6 11 -12 15 -11 26 4 8 10 26 17 45 17 30 0
41 -13 21 -25 -5 -3 -10 -12 -10 -18 1 -8 5 -6 13 3 7 9 21 14 32 12 20 -3 20
-3 1 13 -19 14 -16 15 33 15 49 0 89 -18 74 -34 -4 -3 -1 -6 5 -6 15 0 15 13
0 28 -8 8 12 11 85 11 78 0 97 -3 97 -14 0 -8 -4 -15 -8 -15 -7 0 -7 -62 0
-115 2 -13 -2 -19 -12 -17 -12 3 -12 1 -3 -9 6 -6 9 -18 6 -25 -3 -8 1 -14 8
-14 11 0 11 -3 -1 -10 -12 -8 -12 -10 5 -10 18 -1 17 -2 -5 -16 -14 -8 -17
-13 -7 -10 22 7 36 -22 16 -35 -20 -12 -31 -11 -23 3 4 7 3 8 -5 4 -9 -6 -9
-11 -1 -21 12 -15 -3 -30 -20 -20 -5 3 -10 1 -10 -4 0 -6 4 -11 10 -11 5 0 7
-8 4 -17 -4 -13 -3 -15 4 -5 7 11 12 10 26 -3 14 -15 16 -15 16 -1 0 9 -7 16
-15 16 -8 0 -15 3 -15 8 1 9 29 48 31 41 18 -59 13 -485 -5 -496 -5 -4 -7 3
-4 15 6 23 -12 35 -37 26 -9 -4 -15 0 -15 7 0 11 -3 11 -10 -1 -5 -8 -10 -11
-10 -6 0 5 -7 3 -15 -4 -16 -13 -175 -20 -175 -7 0 4 -8 4 -17 -1 -18 -9 -489
-9 -498 0 -11 10 -26 304 -24 473 1 99 1 190 1 203 0 12 4 22 9 22 5 0 4 11
-1 25 -5 13 -6 26 -2 28 17 8 173 7 189 -1 10 -5 27 -6 38 -2 11 4 28 4 37 -1
10 -5 19 -5 23 0 7 12 45 10 45 -2 0 -4 10 -1 22 7 27 19 25 19 34 4z"/>
<path d="M530 906 c0 -2 8 -10 18 -17 15 -13 16 -12 3 4 -13 16 -21 21 -21 13z"/>
<path d="M680 900 c0 -5 5 -10 10 -10 6 0 10 5 10 10 0 6 -4 10 -10 10 -5 0
-10 -4 -10 -10z"/>
<path d="M753 895 c-3 -9 -3 -18 -1 -21 3 -3 8 4 11 16 6 23 -1 27 -10 5z"/>
<path d="M840 899 c0 -6 -5 -7 -11 -3 -8 5 -8 1 0 -14 6 -12 7 -31 2 -50 -8
-26 -6 -31 18 -41 24 -11 25 -10 7 4 -11 8 -15 15 -10 15 6 0 19 7 30 15 11 9
13 14 5 13 -8 -2 -20 8 -27 22 -16 30 -8 42 11 17 13 -18 29 -10 17 9 -10 15
-42 25 -42 13z m20 -70 c0 -5 -4 -9 -8 -9 -5 0 -9 7 -9 15 0 8 4 12 9 9 4 -3
8 -9 8 -15z"/>
<path d="M221 806 c-6 -7 -32 -19 -56 -26 -25 -7 -45 -15 -45 -19 0 -3 18 -19
40 -34 l40 -28 0 -77 c1 -104 21 -148 93 -198 90 -62 108 -141 41 -169 -19 -8
-34 -19 -34 -26 0 -7 6 -8 18 -3 9 4 40 10 67 13 42 6 46 8 27 15 -20 6 -23
13 -18 34 4 15 9 44 13 65 5 31 10 37 30 37 14 0 26 -7 29 -17 3 -10 11 -30
18 -44 7 -14 11 -40 8 -57 -3 -26 -9 -32 -28 -32 -13 0 -24 -4 -24 -9 0 -13
18 -23 24 -13 7 12 64 14 71 2 3 -5 13 -10 22 -10 13 0 13 3 3 15 -7 8 -19 15
-27 15 -25 0 -26 29 -3 89 16 44 28 61 45 65 12 3 93 3 180 0 180 -6 190 -1
80 50 -59 27 -77 31 -115 25 -54 -8 -214 -5 -288 6 -46 7 -56 13 -78 44 -24
36 -32 71 -15 71 5 0 11 -12 14 -27 10 -50 28 -63 100 -73 37 -6 118 -9 179
-9 109 1 111 2 88 19 -13 10 -58 33 -100 50 -201 86 -260 125 -260 170 0 10
-16 36 -36 59 -38 43 -80 55 -103 27z m39 -42 c0 -8 -4 -12 -10 -9 -5 3 -10
10 -10 16 0 5 5 9 10 9 6 0 10 -7 10 -16z"/>
<path d="M827 777 c4 -6 6 -20 5 -29 -2 -10 1 -18 5 -18 16 0 13 48 -3 54 -10
4 -13 2 -7 -7z"/>
<path d="M854 719 c-3 -6 -2 -15 3 -20 5 -5 9 -1 9 11 0 23 -2 24 -12 9z"/>
<path d="M820 709 c0 -5 5 -7 10 -4 6 3 10 8 10 11 0 2 -4 4 -10 4 -5 0 -10
-5 -10 -11z"/>
<path d="M845 639 c-4 -6 -5 -12 -2 -15 2 -3 7 2 10 11 7 17 1 20 -8 4z"/>
</g>
</svg>
